<svg xmlns="http://www.w3.org/2000/svg" viewBox="0 0 2988.41 1151.75"><g id="Layer_2" data-name="Layer 2"><g id="Layer_1-2" data-name="Layer 1"><path d="M0,1150.93V962.08l28.79-41.44V830.79L43,824.44V678.59c24.45-2.1,47.39-.44,72-1.17V736.9l15.45,6.72v145.2H143c1.73-8.6,3.38-16.87,5.36-26.73h43.06c3.73-25.65,1.39-49.66,1.82-73.52.43-24.18.1-48.37.1-72.56V572.21l22.94-1.51,68.18,89.39V584.81l15.21-7.06v-48.2l23.52-3.48c.63-13.33,1.26-26.65,2-41.1,14.55-.72,27.78-3.17,42.22,3.42V966.51l14.18.78V413.22l34.29-3c.28-33.3.55-66.67.83-101.49l27.95-5.83V245.69l14.78-12.26V136.14l10.14-9.48c0-16-.45-32.87.13-49.74.54-15.46-2.62-31.31,4.14-52.56,3.18,8.57,5.25,11.65,5.35,14.79q2.72,90.2,5,180.41c.13,4.79,0,9.58,0,14.67l14.77,6.58v63.44l25,1.46c10.15,5.6,8.63,13.32,8.64,20.44.06,27.35,0,54.71,0,83.8L566,412.7c1.11,33.09.32,65.89.47,98.66.14,33.06,0,66.11,0,99.16v99.75H633c3.2-25.57-.15-52,1.95-78.09l14.56-6.47V465.8h70.08c5,20.92-.5,42.74,3,63.91L736.88,536V859.41l3.19,0V694.77l19.39-4.48c2.11-20.61-.29-42.22,1.27-64l14-11V583.18L797,579.26c.56-2.32,1.86-5.27,1.86-8.21q.21-90.7.13-181.4c0-7.93,0-15.87,0-25.94,11.84-.19,22.1-.47,32.36-.5,25-.07,50.11.83,75.09-.29,20.51-.93,36,5.81,46.51,22.39,1.11,84.33,2.21,167.94,3.4,251.55,0,.27,1.29.52,4.09,1.58,7.56-19.58,0-40.47,5.15-61.39l21.48-2.2c.5-10.57.95-20,1.44-30.57L1007,540V465.87h21.74c.72,1.55,2.51,3.63,2.53,5.73.2,22.48.12,45,.12,68.12l18.63,4.44c.57,9,1.18,18.48,1.88,29.52l22.17,3.86c2.81,19,0,39,4.91,58.77.64-9.53,1.29-19,2-29l22.55-5.4L1128.3,632V534.93c15-12.73,30.94-5.93,45.55-7,14.4-1.09,28.94-.24,46.11-.24.22-20,.51-39,.62-58,.1-18.43,0-36.86,0-56.79l38-2.61v-103l28.5-3.51v-57l15.12-13.11a45,45,0,0,0,.6-4.77q2.54-95,5.06-190.07c.07-2.3.86-4.57,1.53-7.89h13c0,17.47-.53,34.24.1,51,1.92,50.44,4.29,100.86,6.56,152.92l12.41,5.84v62.79L1370,306.6V410.13l39.07,2.32c.2,8.66.57,17.22.57,25.78q.06,186.22.16,372.46c0,8.43-2.38,17.43,2.35,25.56,10-1,7-8.18,7-12.93.23-50-2.64-100.17,1.09-149.88,2.87-38.19,2.67-76.46,4.49-115.64l27.61-2.1c.55-17.15,1.11-34.42,1.63-50.4,10.93-10.63,22.83-5.73,33.64-6.51,10.29-.74,20.68-.16,32.49-.16V450.82l49.38-62.77c0-54.86,1.34-110.5-.55-166-1-28.82,7.68-52.87,22.36-76.41,27-43.31,53.24-87.09,80-130.54,3.28-5.32,7.83-9.86,11.85-14.84C1698.73,2.57,1714.44-4.95,1729,7V611.81c15.75,5.53,31.06,2.1,46,2.74,14.43.62,28.91.13,44.64.13,3.78-25.75,1.29-50.56,1.75-75.22.45-24.17.1-48.36.1-72.55V393c17.27-9.9,33.69-4.5,49.32-5.42a416.22,416.22,0,0,1,48.43,0c15.79.9,31.48,3.45,46.39,5.19l16.31,24.28V956.79l18,.86V757.71l18.61-4.2c3.63-24.13,1.08-49,1.55-73.61.46-24.11.1-48.24.1-73.19l19.43-10.55V415.88l10.06-9.41V346.55l22.32-6.34c.79-9.12,1.53-17.72,2.4-27.8l18.43-4.93V234h23.52v73.39l18.7,4.22c.83,9.55,1.71,19.63,2.59,29.75l21.6,6.35v58.83h77.4c.64,6.77,1.35,12.13,1.62,17.51,1.71,34.35,1.06,69,5.76,103,3.1,22.43-.14,45.38,4.88,66.7,6.88,29.23-1.69,59.39,8.62,87.85.51,1.43,0,3.2.11,4.81,1.64,43.22.5,86.8,6,129.54,3.43,26.82-.48,54.28,8,80.6,2.13,6.61.57,14.41.59,21.66,0,14.31,0,28.62,0,42.94L2277,961V937.59c0-65.3-.57-130.61.23-195.9.42-34.35,3.25-68.67,5-103.83L2292,624.1V543.73l22.73-3.07c2.73-17.27,3.63-34.9,8.62-51.3,5.16-16.95-3.8-35.45,7.4-52.41h36.89c.48,6.26,1.33,12.43,1.37,18.6.17,22.57.78,45.18-.08,67.72a971.53,971.53,0,0,0,5.78,151.3c6.8,57.08,1.65,113.94,4,170.83.39,9.53-2,19.73,7.54,26-3.35,17.74-4.31,34.72,2.92,52.48,1.2-2.93,4.24-6.78,3.31-8.65-7.53-15.08-3.35-29.44.85-44.24,2.57-9,4.51-18.64,4.54-28,.34-87.87.2-175.75.2-263.62V554.05l21.82-3.73c.71-1.91,2.15-4.06,2.19-6.23.23-16.12.06-32.24.29-48.36.08-5.47,1-10.93,1.55-17.28l21.79-6.6V429.19l10.5-5.72c0-5.66-.11-8.88,0-12.09q2.41-63.6,5-127.2c.11-2.55,1.95-5,4.7-11.68,2.7,6.74,4.5,9.23,4.61,11.79,1.81,42.4,3.4,84.8,5,127.2.12,3.21,0,6.43,0,10,3,2.68,5.8,5.29,9.53,8.7v41.34l18.32,5c3.83,23.94-2,48.21,3.81,72.61l25.45,4.55v250l39.11,33.31V575.34c17.56-5.13,79.31-6.42,123.43-3a15.3,15.3,0,0,1,1.69,1.73,5.29,5.29,0,0,1,.95,2.09,27.67,27.67,0,0,1,.54,4.79c0,93.5,0,187,0,281.15l19.43,14V850.33c0-55.63-.24-111.26.22-166.88.08-10,3-20.06,4.13-26.84,19.52-19.41,41.31-9.75,62.31-14.36.65-11.29,1.33-23,2.09-36.17l24.33-1.31,70.46,94.08c4,19.43-3.51,37.63,6.29,55.81h62.21c1.58,66.77-.29,131.72,1.16,200.87,9.46-10.41,16.27-17.9,23.8-26.2l13.51.74v218.19a17.78,17.78,0,0,1-2,2,4.09,4.09,0,0,1-2.09.93q-1485.11.35-2970.21.59C10.13,1151.75,6.2,1151.31,0,1150.93ZM1610.11,910.58c29,6.34,66.94,5.2,79.17-1.3C1673.14,903.45,1631.35,903.36,1610.11,910.58Zm0-659.22c5.72,3.1,7.59,5,9.48,5,20.82.27,41.66.44,62.48.09,2.77,0,5.49-3.09,10.19-5.92C1668.66,246,1632.12,246.17,1610.12,251.36Zm2.81,25c3.56,13.69,12.57,8.89,18.36,9,50.49,1.15,50.49,1,60.63-8.67C1664.3,275.83,1639.31,276.23,1612.93,276.4Zm80.57,414.93c-28.67-6.45-66.89-5.31-79.1,1.28C1630.54,698.49,1672.39,698.59,1693.5,691.33Zm-79.13-352.74c8.56.13,17.13.3,25.69.36,8.81.06,17.64.46,26.41-.12,7.82-.52,16.84,3,24.62-4.87C1671.6,327.64,1629.9,327.89,1614.37,338.59Zm79.15,23.77c-28.94-6.38-67-5.23-79.12,1.34C1630.65,369.56,1672.51,369.63,1693.52,362.36Zm-79.15,631.52c24.35,3,48.72,4,73.15,1.39.71-.08,1.18-2.49,1.76-3.82C1673,985.58,1631.06,985.54,1614.37,993.88Zm77.19-330c-3.21-3-4.28-4.84-5.37-4.85-22.38-.24-44.78-.39-67.16-.1-1.9,0-3.75,3.24-6.62,5.89C1636.52,669.17,1672.29,668.81,1691.56,663.9Zm-2.26,79.49c-24.35-2.72-48.72-4-73.14-1.27-.71.08-1.17,2.49-1.74,3.81C1631,751.75,1672.86,751.75,1689.3,743.39Zm0,302.3.09-5.06c-12.56,0-25.12-.09-37.69-.1-28.1,0-28.1,0-37.25,5.5C1631.86,1051.78,1673.6,1051.59,1689.27,1045.69Zm4-545.76c-16.84-6.68-57.27-8.09-77.77-3.92-.63.13-.75,2.69-1.11,4.12C1631.81,504.43,1668.06,504.71,1693.24,499.93Zm.3,110.57c-5.7-3.13-7.55-5-9.43-5-20.82-.26-41.65-.43-62.47-.08-2.78,0-5.52,3.06-10.28,5.88C1634.82,615.83,1671.48,615.65,1693.54,610.5Zm-4.23-167.06c-24.37-2.7-48.76-4-73.2-1.23-.71.08-1.15,2.5-1.71,3.84C1631.11,451.87,1673,451.83,1689.31,443.44Zm-79.14,438.18c29,6.39,67.06,5.23,79.1-1.35C1673.07,874.41,1631.2,874.34,1610.17,881.62Zm79.23,52.78c-8.52-.13-17.05-.32-25.58-.39-8.81-.06-17.65-.43-26.42.12-7.87.49-16.84-2.85-24.9,4.63C1631.07,945.26,1673,945.21,1689.4,934.4Zm-75.05-352.16c12.31,4.78,25,3.14,37.58,3.26,28,.25,28,.07,37.36-5.32C1672.31,574.43,1630.56,574.53,1614.35,582.24ZM1692.92,828c-17.53-5.78-59.67-6.86-77.67-2.85-.61.14-.66,2.77-1.36,6.06,12.62-1.23,25-1.17,36.77-3.92C1664.09,824.1,1676.16,837.57,1692.92,828ZM511.77,482.45c-18.19-3.87-36.3-4.29-56.62-1.37C470.69,490.74,494.41,491.55,511.77,482.45ZM2853.59,935.56c10.26,10.81,32.71,10.94,43.92,0Zm1.34-138c20.33,8.42,33.41,7.45,41.85-2.22C2882.12,793.24,2868.49,792.52,2854.93,797.57Zm-1.33,191.22c10.26,10.79,32.67,10.92,43.91,0ZM1615.11,417.41l0,3.2c23.73,0,47.45.09,71.17-.27,1.2,0,2.33-4,3.3-5.84Zm1280.7,409.51c-13.87-3.73-27.84-7.42-46.36,2C2868.68,833.44,2882.35,834.09,2895.81,826.92Zm-1280-27.67.52,3.92c22.3,0,44.6.16,66.9-.25,2.26,0,4.46-3.55,7-5.72Zm1239.3,109.94c13.75,6.43,27.51,8.24,46.45-.83C2882.38,903.71,2868.77,904.59,2855.07,909.19ZM2900.38,883c-10.35-9.68-18.57-6.64-25.78-6.76-6.88-.11-15.87-3.05-19,9.28C2869.64,885.16,2882.83,887.11,2900.38,883ZM1687.86,528.19c-.13-1.78-.26-3.55-.4-5.32-11.89,0-23.78-.22-35.67.06s-24.18-1.24-35.87,5.26Zm1208,330c-14.58-7.94-22.77-8.1-41-2.3C2868.66,865.16,2882.32,860.79,2895.81,858.21ZM1687.45,391.3l.45-3.91c-11.94,0-23.88-.26-35.81.07-12.11.34-24.43-1.52-36.22,3.84Zm249,228.84-17.89.86c.66,6.76,1.16,11.88,1.64,16.75h16.25Zm-321.22,397.34v2.35h73.25v-2.35ZM1919.63,856l17.9-.86c-.67-6.77-1.17-11.89-1.65-16.74h-16.25Zm16.16,144.38V982.71l-16.29,1.44v16.25ZM1616.5,964l-.93,3.77c11.91,0,23.83.16,35.74,0,12.29-.21,24.7,1,36.75-3.72Zm71.2-408.16c0-1.25-.06-2.5-.1-3.74-23.21,0-46.43,0-69.65.11-.66,0-1.3,1.77-2.58,3.63Zm.8,299.52c0-.75,0-1.5,0-2.26h-73.27l0,2.26ZM1919.33,1113l17.15-2.14v-15.8h-17.15ZM1615.62,470.63l.87,3.35q34.86,0,69.72-.07c.62,0,1.37-.87,1.79-1.52.15-.23-.51-1-1-1.76Zm321.05,222.76h-16.82V711l16.82-1.18Zm-320.68,77,.15,3.67c23.2,0,46.41,0,69.61-.12.64,0,1.28-1.75,2.51-3.55Zm72.07-132.53-.83-3.38q-34.86,0-69.73.06c-.62,0-1.37.88-1.79,1.52-.15.23.48,1,.92,1.8Zm-72-414.11,0,3.94c12,0,23.91.24,35.85-.07s24.15,1.5,35.75-3.87Zm303.4,704.09h16.82V910.24l-16.82,1.21ZM1687.66,309.15l0-4c-12,0-23.91-.25-35.86.06s-24.15-1.53-35.73,3.92Zm-.05,411.1c0-1.31.07-2.62.1-3.93-11.94,0-23.89-.24-35.83.06s-24.2-1.46-35.84,3.87Zm232.73-283.19v17.68l16.28-1.42V437.06ZM1936.48,783V766.17h-17.66c.46,6.47.82,11.58,1.19,16.79ZM842.77,631.15c.32,6.45.55,11,.8,16h17.22C858.92,631.59,858.92,631.59,842.77,631.15ZM860,574.86c-.27-17.43-.27-17.43-17.2-15,.62,5.15,1.25,10.3,1.82,15Zm-16.14-73.28h16.87c-1.81-15.09-1.81-15.09-16.87-15.56Zm12.72,40.2c2.07-5.38,4-10.46,6.64-17.22H842.88c.32,4.66.52,7.63.71,10.38ZM843.05,412.17c.38,7.13.66,12.28,1,18.71l13.45-2.07c-1-6.52-1.81-11.61-2.59-16.64Zm54.15,16.6,13.08,1.49c-.59-7.37-1-12.54-1.46-18.31l-11.62.67Zm986,9.18-13-1.46c.58,7.29,1,12.41,1.45,18.13l11.57-.64Zm.24,544.63-13.65,1.75c.91,6.54,1.62,11.62,2.41,17.27l11.24-1.39Zm-1022-531.92-18.74,1c.8,5.22,1.35,8.78,2.06,13.43l16.68-2.58Zm1057,571.36c.58,5.52.89,8.51,1.28,12.23h17.54c-.42-4.88-.73-8.42-1.06-12.23ZM2592.87,745.3,2605.1,744V726.39l-12.23,1.1ZM1920.58,1061c-.38,3.32-.84,7.38-1.49,13l18.19-1.45c-.26-4.49-.44-7.47-.67-11.56Zm17-584.72h-19.08c.77,4.83,1.33,8.38,1.84,11.6h15.91C1936.71,484,1937.05,481,1937.59,476.29ZM896.87,503.47l12.29-1.3V484.49l-12.29,1.11Zm986.33,608.3v-17.5l-13.06.63c.58,6.79,1,11.92,1.49,17.61Zm53.87-453.08-18.58,1c.79,5.22,1.33,8.77,2,13.39l16.54-2.57Zm-16.5,73.41c-.37,3.31-.83,7.37-1.47,13l18.18-1.44c-.26-4.49-.43-7.48-.66-11.56Zm16-217.75H1919c.2,4.73.36,8.27.57,13l17.69-1.47C1937,521.44,1936.82,518.45,1936.55,514.35ZM909.23,525l-13.07-1.5c.59,7.37,1,12.54,1.45,18.32l11.62-.66ZM843.87,741.62v17.65l13.06-.61c-.58-6.88-1-12-1.49-17.81Zm1039.29,25.26-13-1.46c.58,7.3,1,12.41,1.44,18.13l11.58-.64ZM856.68,792.62c-.57-6.54-1-12.13-1.61-18.65L843,776.23c.48,6.14.89,11.31,1.34,17.08ZM1919.05,561.13l17.69-1V547.83l-17.69,1ZM897.16,557.81v17.65l13.12-.62c-.58-6.89-1-12.05-1.51-17.8Zm0,217.67v17.66l13.08-.64c-.58-6.86-1-12-1.51-17.78Zm-35.17-94c-.59-5.55-.91-8.55-1.3-12.27H843c.45,4.92.77,8.47,1.12,12.27Zm1074.7,121.7-18.2,2.27c.51,4.48.84,7.46,1.24,11h17Zm-65.79-92,13.66-1.76c-.92-6.55-1.63-11.62-2.43-17.28l-11.23,1.42Zm65.8-125.73-18.2,2.27c.5,4.48.83,7.46,1.23,11h17ZM844.45,595.44v19.22l11.67-1.86v-16ZM897,614.6l13.72-1.79c-.93-6.6-1.64-11.72-2.44-17.43L897,596.81ZM1918.32,890.09l19.32-1c-.8-5.21-1.34-8.76-1.84-12h-16Zm-1073.87-77v18.34h11.34v-17Zm66.22,18.35c-.93-7.51-1.57-12.63-2.29-18.34l-11,1.25v17.09Zm959.07,6.79c.94,7.42,1.58,12.51,2.29,18.16l11-1.22V838.26Zm1.4,72.74v17.48l13.06-.58c-.58-6.83-1-11.95-1.49-17.66Zm12.06-273.28V620.21l-13.06.63c.58,6.8,1,11.92,1.5,17.62ZM842.64,722.14c6.68-7.58,17.19-2.17,19.17-15l-17.9-6.55C843.45,708.35,843.16,713.37,842.64,722.14ZM1936.73,948.37l-18.2,2.27c.51,4.48.85,7.45,1.25,11h17ZM908.5,629.41l-12.72,1.78c.87,6.46,1.55,11.48,2.47,18.29C907.52,645.36,912.24,641.29,908.5,629.41ZM593.12,856.76l5.53-1.38V836.87l-15.07,3.58ZM2605,629.12c-10.65,3-15,7.59-11.12,18H2606C2605.64,640.73,2605.34,635.55,2605,629.12ZM586.84,1074.77c-1.06,11.17.57,17.51,12.23,17.81v-17.21Zm13.22-203.58-12.66,1.18c-2.58,10-.42,15.87,11.51,17.62C599.27,884.1,599.58,879,600.06,871.19ZM2605.77,843.1c-.44-8.25-.74-13.94-1.09-20.38L2594,824C2590.25,833.37,2593.48,838.38,2605.77,843.1ZM895.94,461.77l15.39,7.59c-1.43-8.63-2.25-13.58-3.15-19l-10.84,1.08C896.84,455.09,896.45,458,895.94,461.77ZM2606.46,774.16c-.84-6.3-1.32-9.86-1.95-14.59L2592,762.28c.54,4.31.91,7.3,1.38,11ZM1870.13,489l14.57-2-2.7-12.56-11,1.39C1870.73,479.76,1870.54,482.74,1870.13,489Zm-.3,315.44c.63,5.51,1,8.5,1.37,11.95h13c-.53-4.85-.91-8.41-1.36-12.56Zm-1284,203.21c.62,5.5,1,8.49,1.36,11.93h12.9c-.51-4.82-.88-8.36-1.26-11.93Zm1296.53-480,1.17-14.52-13.35,2c.32,4.36.55,7.35.83,11.16Zm1,348.27-12,1.36v13l12.57-1.35C1883.77,884.37,1883.64,881.39,1883.38,875.88Zm-1084.3,187.6c-.63-5.48-1-8.47-1.36-11.92H784.8c.5,4.82.87,8.36,1.25,11.92ZM1872,547.11c-.39,4.67-.73,8.75-1.21,14.43l13.35-1.91-.79-11.16ZM798.8,1016.21l-14.55,1.95c1.08,5,1.83,8.53,2.68,12.51l11-1.36C798.18,1025.44,798.38,1022.46,798.8,1016.21ZM600.35,810.3,585.9,809c.82,5.71,1.33,9.26,1.91,13.34l11.18-.85C599.44,817.83,599.8,814.85,600.35,810.3ZM1869.94,598.13l14.54,1.18c-.86-5.7-1.4-9.27-2-13.36l-11.17.87C1870.85,590.55,1870.49,593.55,1869.94,598.13ZM785.57,827.62l11.94-1.36V813.32L785,814.71C785.17,819.15,785.31,822.13,785.57,827.62ZM2605.38,600.13l-12,1.37v13L2606,613.1C2605.77,608.64,2605.63,605.65,2605.38,600.13ZM784.72,759.83l14.56-2c-1.09-5-1.85-8.53-2.72-12.52l-11,1.38C785.33,750.62,785.13,753.59,784.72,759.83Zm14.09,87.1-14.56,1.94c1.08,5,1.83,8.53,2.69,12.52l11-1.36C798.18,856.16,798.38,853.18,798.81,846.93Zm-12.22,33.9c-.39,4.68-.73,8.75-1.21,14.44l13.35-1.95c-.33-4.35-.56-7.33-.85-11.14ZM1871,1035.66l12-1.36v-13l-12.59,1.39C1870.57,1027.17,1870.71,1030.16,1871,1035.66Zm-1285.15,5.86c.63,5.5,1,8.49,1.37,11.93h12.9c-.51-4.83-.88-8.37-1.26-11.93ZM600.45,753.9c-.62-5.47-1-8.46-1.36-11.93H586.2c.5,4.82.87,8.37,1.29,12.52Zm1281.91-8.61c.39-4.69.72-8.78,1.19-14.48l-13.34,2c.33,4.34.55,7.32.84,11.12Zm0,328.93,1.17-14.51-13.35,2c.33,4.36.55,7.34.84,11.15ZM1872,658.3c-.39,4.7-.73,8.79-1.21,14.5l13.37-1.95c-.32-4.37-.55-7.36-.83-11.18ZM785.57,1098.45l11.94-1.36v-12.91L785,1085.57C785.18,1090,785.31,1093,785.57,1098.45ZM2591.91,663.3c.84,6.3,1.32,9.87,2,14.6l12.56-2.7c-.54-4.32-.91-7.3-1.37-11Zm2.1,130.41c-.39,4.73-.73,8.83-1.2,14.54l13.35-2c-.33-4.37-.56-7.36-.85-11.18ZM798,677.6,786,679v12.9l12.54-1.35C798.34,686.06,798.21,683.08,798,677.6ZM2604.37,871.08c.38-4.72.72-8.82,1.19-14.53l-13.34,2c.33,4.36.55,7.36.83,11.18Zm-12.23-159.57,14.56-2L2604,697l-11,1.39ZM784.71,929.11l14.57-1.94c-1.09-5-1.85-8.53-2.72-12.53l-11,1.39C785.34,919.9,785.13,922.88,784.71,929.11Zm.86-135.39,11.94-1.36V779.44L785,780.84C785.17,785.27,785.31,788.25,785.57,793.72Zm-1-69.83L799,725.1c-.84-5.69-1.36-9.24-2-13.31l-11.17.84C785.45,716.34,785.09,719.33,784.54,723.89ZM600.4,924c-.83-6.25-1.31-9.8-1.94-14.5L586,912.17c.52,4.32.88,7.29,1.32,11Zm2005-33.69-12,1.37v13l12.55-1.37C2605.77,898.87,2605.63,895.88,2605.38,890.35ZM585.83,775.4c.63,5.53,1,8.52,1.36,11.9h13c-.56-4.85-1-8.4-1.45-12.52ZM587,958.17l11.94-1.36V943.92L587,945.18Zm197.49-8.6c.62,5.5,1,8.49,1.36,11.93h12.94c-.53-4.84-.92-8.4-1.37-12.54ZM1882.37,963c.38-4.71.71-8.81,1.18-14.52l-13.38,2c.34,4.34.57,7.33.87,11.14Zm1012,4c0-1.24-.07-2.49-.1-3.74-11.92,0-23.85,0-35.77.12-.66,0-1.29,1.79-2.52,3.62Zm-2295,5.71-11.91,1.36V987l12.53-1.44C599.72,981.13,599.58,978.15,599.31,972.69Zm199.72,24c-.84-6.29-1.32-9.84-1.95-14.55l-12.55,2.69c.53,4.29.9,7.27,1.36,11Zm1374.52-527c-10.13,9.26-10.13,9.26,0,19.51Zm-.05,64.15c-9.36,6.31-9.63,12,0,19.93Zm-1676,382.55c-3.88,10.47-5.69,16.44,1.79,23.39C504.4,931.88,504.7,926.28,497.48,916.38ZM2097.94,804.69c5.64-8.58,6-14.2-1.37-21.69C2092.12,791.25,2091.4,796.9,2097.94,804.69Zm69.25-350.93,5.79.32c.53-4.77,1.43-9.55,1.33-14.31,0-1.13-3.37-2.19-7.12-4.45Zm0,194.76c10.13-9.28,10.13-9.28,0-19.51Zm471.56-18.11-6,.34c-1.93,6-4.63,12.21,6,18.86Zm27.75,17.09,5.6.12c.54-4.79,1.44-9.59,1.34-14.38,0-1.14-3.37-2.22-6.42-4.08-.94,3.91-2.12,6.73-2.16,9.57S2665.87,644.58,2666.46,647.5ZM464.62,916.44c-5.48,10.28-6.21,15.94.1,23.47C470.87,932.28,470.23,926.66,464.62,916.44ZM2066.87,785.37l-5.75-.45c-.53,4.81-1.42,9.63-1.33,14.43,0,1.13,3.36,2.2,7.08,4.46ZM464.16,980.63c-4.8,9-6.23,14.65,1.72,22C470.18,994.49,470.9,988.85,464.16,980.63Zm34.38-1.32c-5.48,10.29-6.2,16,.1,23.49C504.79,995.16,504.15,989.54,498.54,979.31ZM2635.08,723.77c-5.09,9.64-6.33,15.57,1.11,22.57C2641.36,738.4,2641.66,732.76,2635.08,723.77Zm37.52,3.51-5.8-.33c-.54,4.8-1.44,9.6-1.34,14.39,0,1.14,3.38,2.22,7.14,4.49ZM431.32,940.52c4.76-8.93,6.18-14.62-1.79-21.95C425.27,926.7,424.45,932.35,431.32,940.52Zm1595.3,119.19c10-9.32,10-9.32,0-19.53Zm40.28-18.09c-9.27,6.56-9.87,12.38,0,19.4Zm30.75-4.14c-5.61,10.17-6.29,15.84.07,23.32C2103.91,1053.2,2103.28,1047.58,2097.65,1037.48ZM430.33,1014.05c-5.08,9.61-6.31,15.5,1.08,22.47C436.57,1028.62,436.84,1023,430.33,1014.05Zm34.09.85c-5.59,8.59-6,14.21,1.37,21.71C470.19,1028.35,470.93,1022.71,464.42,1014.9Zm1705.77-136c5.55-10.18,6.92-15.86-2-24.08-1.22,6.24-2.46,9.72-2.38,13.18C2165.86,870.44,2167.67,872.87,2170.19,878.88ZM2033,785.25l-5.83.32c-2.09,6-4.68,12.15,5.83,18.79ZM427.55,1098.41c10.09-9.32,10.09-9.32,0-19.52Zm40.31-19.22c-10,9.23-10,9.23,0,19.49Zm33.92,0c-10,9.24-10,9.24,0,19.49ZM433.9,983.7l-5.78-.32c-.54,4.77-1.43,9.55-1.33,14.31,0,1.13,3.37,2.19,7.11,4.43ZM2635.08,820.52c-5.09,9.63-6.34,15.56,1.1,22.56C2641.36,835.14,2641.66,829.51,2635.08,820.52Zm-2136.63,218c5.53-10.17,6.81-15.85-2-24.11-1.22,6.31-2.45,9.78-2.37,13.22C494.14,1030.08,495.94,1032.51,498.45,1038.51Zm12.67-526.6v-2.4H481.28v2.4ZM2033,819.08l-5.49.31c-2.33,4.64-5.14,9.36,5.49,13.28ZM512.36,869.4c-.58-2.82-.88-4.26-1.6-7.77L499,865.55l.84,3.85ZM2033,915.82l-5.49.31c-2.33,4.64-5.16,9.37,5.49,13.27Zm28.26,12.23,6.1-.22q-.85-6.23-1.69-12.45l-4.41.4Zm33.27-.11,5.5-.32c2.4-4.64,5.13-9.33-5.5-13.3Zm78.36-2.56-6.12.22,1.68,12.45,4.44-.38ZM512.08,786.53l-.22-6.12-12.5,1.68c.14,1.48.27,3,.4,4.44Zm1660.8-281.89-6.23.33q.93,6.13,1.87,12.27l4.36-.43Zm494.42,269,5.85-.75c-.63-4.13-1.25-8.25-2.51-16.48-3.56,5.92-5.49,7.7-5.5,9.49C2665.13,768.51,2666.51,771.09,2667.3,773.67ZM499.72,534.13c5.07,8.2,9.73,10.45,13.77,0Zm1667.43,46,7.84-1.6c-1.37-4.1-2.66-7.94-3.95-11.78l-3.89.85ZM499.68,588c.08,2,.15,4.08.23,6.12l12.49-1.68c-.13-1.48-.26-3-.4-4.44Zm1566.57,231-6.21.33q.93,6.14,1.87,12.29l4.34-.44ZM2033,949.67l-5.5.31c-2.31,4.64-5.18,9.37,5.5,13.25Zm33.24-.13-6.08.23q.84,6.22,1.67,12.44l4.41-.37Zm28.26,12.64,7.84-1.6c-1.39-4.13-2.67-7.94-4-11.75l-3.88.84ZM433.27,954.51l-6.22.3q.93,6.16,1.87,12.33l4.35-.44Zm33.93,0-6.2.29,1.86,12.34,4.34-.44Zm33.92,0-6.2.29,1.86,12.34,4.34-.44Zm1666,12.17c7.28-7.65,7.28-7.65,0-13.3ZM2638.7,761l-5.53.31c-2.38,4.66-5.17,9.38,5.53,13.32ZM2172.48,600.92l-5.84.75c.63,4.11,1.25,8.23,2.51,16.43,3.54-5.91,5.47-7.68,5.47-9.46C2174.64,606.07,2173.26,603.49,2172.48,600.92Zm466.23.4c-8.25,5.07-10.46,9.72,0,13.77ZM2026.62,991c8.09-5,10.47-9.72,0-13.68Zm39.6-12.3-6.08.22q.84,6.21,1.67,12.43l4.41-.39Zm28.26,12.62,7.83-1.59c-1.38-4.14-2.66-7.94-3.93-11.75l-3.9.83Zm572.43-377.59,6.14-.23q-.84-6.24-1.69-12.5l-4.45.41ZM499.8,616.39l.32,5.49c4.65,2.37,9.36,5.13,13.34-5.49ZM2168.15,677l4.31-.21c.85-2.09,2.51-4.26,2.32-6.26-.24-2.44-2-4.73-4.12-9.14-2.61,4.24-4.55,6-4.57,7.77C2166.06,671.74,2167.39,674.37,2168.15,677Zm470.55-12.7-5.53.32c-2.4,4.66-5.15,9.38,5.53,13.34Zm-537.84,154.8-5.52.32c-2.35,4.63-5.16,9.34,5.52,13.28Zm571.77-154.87c-8.25,5.06-10.45,9.71,0,13.77Zm-504.81,109,6.23-.29q-.93-6.17-1.87-12.32l-4.36.45Zm5.73,215.14c-8.2,5.05-10.49,9.7,0,13.68ZM512,757.54l-.3-6.22-12.38,1.88.45,4.34Zm0-82.22-.3-6.24L499.32,671l.45,4.36Zm1514.63,349.4c7.28-7.56,7.28-7.56,0-13.33Zm34.6.06,6.1-.21-1.69-12.44-4.41.39Zm39.63-12.22-5.52.31c-2.33,4.63-5.19,9.36,5.52,13.26ZM499.8,698.63c7.65,7.23,7.65,7.23,13.38,0Zm1673.75-.88-7.85,1.59,4,11.77,3.89-.85Zm458.75,13,7.87-1.61c-1.4-4.15-2.68-8-4-11.79l-3.9.84Zm34.59-.37,6.26-.29q-.95-6.19-1.88-12.39l-4.38.45ZM499.74,727.6c5.06,8.21,9.72,10.47,13.74,0Zm1673.79-.42c-7.33,7.54-7.33,7.54,0,13.32Zm-1,294.5-5.81.65c.56,4.15,1.12,8.3,2.25,16.65,3.66-5.94,5.6-7.69,5.62-9.47C2174.64,1026.91,2173.3,1024.29,2172.55,1021.68Zm1-193c-8.21,5-10.48,9.69,0,13.68ZM499.68,834.75c.09,2,.17,4.07.26,6.11l12.44-1.68-.38-4.43Zm2172.27-40-6.13.26,1.68,12.44,4.45-.38Zm-39.65,12.69,7.87-1.61c-1.38-4.11-2.68-8-4-11.82l-3.89.86Zm-605.65,57.61,5.47-.31c2.36-4.63,5.08-9.31-5.47-13.34ZM433.92,1051.28l-5.5.31c-2.37,4.65-5.16,9.36,5.5,13.27Zm33.26-.12-6.08.26,1.66,12.39,4.42-.38Zm33.92,0-6.08.22q.84,6.22,1.67,12.45l4.41-.4ZM2066.22,852.8l-6.08.26q.84,6.2,1.67,12.4l4.41-.37Zm107.3,198.53-5.5.31c-2.41,4.63-5.1,9.31,5.5,13.3Zm-72.64-198.81-7.85,1.6c1.38,4.1,2.66,7.94,3.95,11.78l3.9-.85Zm66.27-45.08,7.84-1.6c-1.37-4.1-2.66-7.94-3.95-11.78l-3.89.85ZM2033,882c-7.21,7.58-7.21,7.58,0,13.33Zm-5.68,205.63,6.21-.33q-.93-6.15-1.88-12.29l-4.33.44Zm39.62-12.54-7.79,1.59,3.93,11.74,3.86-.83Zm27.58,12.9,7.83-1.59c-1.37-4.1-2.65-7.93-3.94-11.77l-3.89.85Zm-28.6-206.47-4.35.27c-.81,2.08-2.44,4.25-2.22,6.21.27,2.43,2.08,4.69,4.21,9,2.53-4.23,4.43-6,4.45-7.77C2068,886.69,2066.64,884.11,2065.88,881.54Zm35,.48-5.49.31c-2.42,4.63-5.09,9.31,5.49,13.32Zm-1667.6,9.49-6.09.23q.84,6.22,1.67,12.45l4.42-.38Zm28.27,12.32c8.14-5,10.37-9.67,0-13.73Zm1706.31,193.43,6.23-.29-1.86-12.33-4.37.44Zm-1667-206.17-5.79.64c.56,4.16,1.11,8.31,2.24,16.69,3.63-6,5.55-7.72,5.58-9.49C502.87,896.33,501.55,893.71,500.81,891.09Zm1666.34,12.77c8.2-5.05,10.48-9.71,0-13.7Zm463.74-41.8,4.31,4.07a51,51,0,0,0,4-6c.15-.29-2.5-2.7-2.89-2.47A40.13,40.13,0,0,0,2630.89,862.06ZM2670.73,840h2.21V824.83h-2.21Zm-638.29,277.1v-9.77C2025.48,1111.62,2022.39,1114,2032.44,1117.1Zm33.92,0v-9.52C2059.23,1111.62,2056.43,1114,2066.36,1117.11Zm31.95-9.78c-2.18,2.74-3.8,4.07-4.34,5.74-.3.91,1.51,3.55,1.9,3.46,1.91-.47,4.4-1.17,5.23-2.62C2101.65,1112.94,2099.78,1110.59,2098.31,1107.33ZM510.81,647.47v-2.28H501v2.28Zm.36-82.33L510.8,562l-9.42,1.22.36,2.93ZM2604.16,923l-.35-3.36-9.72,1.11c.12,1.1.23,2.19.34,3.29Zm-2093-111.16c-.11-1-.22-2.09-.32-3.13L501.39,810c.12,1,.23,1.95.35,2.93Z"/></g></g></svg>